<?xml version="1.0" encoding="utf-8"?>
<!-- Generator: Adobe Illustrator 22.0.1, SVG Export Plug-In . SVG Version: 6.00 Build 0)  -->
<svg version="1.1" id="Layer_1" xmlns="http://www.w3.org/2000/svg" xmlns:xlink="http://www.w3.org/1999/xlink" x="0px" y="0px"
	 viewBox="0 0 1366 768" style="enable-background:new 0 0 1366 768;" xml:space="preserve">
<style type="text/css">
	.st0{fill:#5B62B9;}
	.st1{fill:none;}
	.st2{fill:#FFFFFF;}
	.st3{fill:#FF0000;}
</style>
<g>
	<g>
		<path class="st0" d="M486.3,531.4c-9-1-18-0.1-27-0.2c-10.1-0.1-16.1-7.8-16.1-20.6c0-12.4,5.5-19.7,15.3-20
			c4.3-0.1,8.6-0.1,14.9-0.1c-10.9-22.9-20.5-43.8-30.8-64c-1.5-2.9-5.8-2.9-8.9-3.1c-22.9-1-45.9-1.1-68.8-2.8
			c-6.2-0.5-12.6-4.2-18.2-8.6c-3.7-2.9-8.5-9.8-8.5-14.7c0.1-5.2,4.8-12.6,8.5-14.6c9.8-5.1,20-9.9,30.2-11
			c19.1-1.9,38.4-0.5,57.5-1.6c3.6-0.2,8.2-4,10.4-8.5c8.9-18.1,17.1-37.2,26.7-58.5c-6.5,0-11.1,0.2-15.6,0.1
			c-9.2-0.4-14.6-7.7-14.9-19.7c-0.2-12.1,5-19.9,14.1-20.3c8.7-0.4,17.5-1,26.1,0.1c6.8,0.8,10.5-3.6,14-11.7
			c8.1-18.6,16.4-37,24.8-55.2v-41.2c0-7.8-6.7-14.2-15-14.2H210c-8.3,0-15,6.3-15,14.2v481.6c0,7.8,6.7,14.2,15,14.2h295.2
			c8.3,0,15-6.3,15-14.2v-47.6c-8-16.7-15.9-33.5-24.1-50C494.1,535,489.7,531.8,486.3,531.4z"/>
		<path class="st0" d="M520.3,368.7v-4.9c-0.5,1.7-0.9,3.3-1.4,5C519.4,368.7,519.8,368.7,520.3,368.7z"/>
		<path class="st0" d="M520.3,427.4v-2.3c-0.2,0-0.4,0.1-0.6,0.1C519.8,426,520,426.7,520.3,427.4z"/>
		<path class="st1" d="M1030.2,446h21.8c32,0,58-24.5,58-54.7V199.7c-37.5-11.9-84.1-22.5-137.8-31.3v222.9
			C972.2,421.5,998.2,446,1030.2,446z"/>
		<path class="st0" d="M889.7,449.1c0-40.2-7.9-79.7-19.8-116.3c-11.9-36.6-27.9-70.4-44-99.1c-23.7-42.4-47.5-73.9-58.4-87.6
			c-57.9-3.7-119.4-5.6-183.1-5.6h0c-0.9,0-1.8,0-2.6,0v230.7c16.7,1,33.3,2,50,2.7c2.6,0.1,6-2.9,7.7-6.1
			c8.8-16.2,18.2-31.9,25.6-49.7c8.2-19.6,18.5-25.3,33.3-18.6c-8,29.9-16.1,60.2-24.7,92.6c8.2,1,15.2,1.8,22.2,2.7
			c0,0.6,0,0.4,0,1c-6.8,1.1-13.7,2.2-22.1,3.6c9.1,31.7,17.7,61.9,26.3,92.1c-13.3,5.6-23.7,3.9-32.2-15.7
			c-8-18.4-18.1-34.6-27.6-51.4c-1.8-3.3-5.1-6.7-7.6-6.5c-16.9,0.9-33.9,1.9-50.8,2.9v230.1c0.9,0,1.8,0,2.6,0h0
			c80.1,0,156.6-3.1,227-8.8c27.8-29.4,46.9-60.1,59.3-91.2C884.1,517.2,889.7,482.9,889.7,449.1z"/>
		<path class="st0" d="M1110,199.7v191.5c0,30.2-26,54.7-58,54.7h-21.8c-32,0-58-24.5-58-54.7V168.4
			c-53.8-8.8-114.8-15.8-180.7-20.6c7.1,9.5,16.1,22,26,37.1c23.2,35.6,51.1,85.4,69.8,142.4c12.4,38,20.8,79.3,20.8,121.8
			c0,35.6-5.9,72-20.1,107.8c-11.2,28.3-27.7,56.1-50.4,82.9c220.6-20.3,374.5-66.2,374.5-119.6V271.1
			C1212,244.8,1174.5,220.2,1110,199.7z"/>
		<polygon class="st2" points="761.5,138.4 761.2,138.6 761.2,138.6 		"/>
	</g>
	<path class="st3" d="M517.6,459.2c0.4-9.3,0.8-18.6,1.2-27.9c0.1-3.4-0.4-3.9-4.1-3.5c-8.4,0.9-16.8,1.9-25.2,2.8
		c-0.3,0-0.7,0-1.2,0c0.6-2.2,1.1-4.3,1.9-6.2c1.1-2.7,0.3-4.7-2.1-6.5c-8.4-6.6-16.7-13.3-25-20c-0.6-0.5-1.2-1.1-2.1-1.9
		c1.9-0.9,3.6-1.8,5.3-2.5c1.8-0.8,2.5-1.9,1.9-3.8c-1.7-5.8-3.2-11.6-4.9-17.8c5.1,1.1,9.8,2,14.5,3c3.6,0.8,4.4,0.3,5.4-3.1
		c0.5-1.7,1-3.3,1.7-5.4c4.1,4.5,7.9,8.8,11.8,13c1.3,1.4,2.4,3.5,4.7,2.5c2.1-0.9,1.4-3,1-4.8c-1.6-8.5-3.2-17.1-4.8-25.6
		c-0.2-0.9-0.3-1.7-0.4-3c2.3,1.2,4.3,2.2,6.2,3.1c4.3,2.2,5.3,1.9,7.5-2.2c3-5.6,6.1-11.2,9.3-17.1c3.2,5.9,6.2,11.5,9.3,17
		c2.3,4.2,3.2,4.4,7.7,2.2c1.9-1,3.8-1.9,6.2-3.1c-1,5.3-1.9,10.2-2.8,15c-0.9,4.9-1.9,9.7-2.7,14.6c-0.2,1.2,0.6,2.6,1,3.9
		c1.4-0.5,3.1-0.7,4-1.7c4.2-4.4,8.2-9,12.6-13.9c0.7,2.2,1.2,4,1.8,5.9c0.9,2.9,1.8,3.4,4.9,2.8c4.8-1,9.6-2,14.9-3.1
		c-1.5,5.5-2.9,10.6-4.3,15.7c-0.2,0.8-0.4,1.6-0.6,2.3c-0.6,1.8,0.1,2.9,1.8,3.6c1.8,0.8,3.5,1.6,5.5,2.6
		c-6.3,5.1-12.4,10-18.5,14.9c-3.1,2.5-6.1,5-9.3,7.4c-2,1.5-2.4,3.3-1.8,5.4c0.7,2.2,1.4,4.4,2.2,7c-5.2-0.6-10.1-1.1-14.9-1.6
		c-4-0.4-8-1-12-1.3c-3.1-0.3-3.7,0.3-3.6,3.2c0.2,9.4,0.4,18.8,0.6,28.2C520.6,459.2,519.1,459.2,517.6,459.2z"/>
</g>
</svg>
