<?xml version="1.0" encoding="utf-8"?>
<!-- Generator: Adobe Illustrator 22.0.1, SVG Export Plug-In . SVG Version: 6.00 Build 0)  -->
<svg version="1.1" id="Layer_1" xmlns="http://www.w3.org/2000/svg" xmlns:xlink="http://www.w3.org/1999/xlink" x="0px" y="0px"
	 viewBox="0 0 1014.7 513.1" style="enable-background:new 0 0 1014.7 513.1;" xml:space="preserve">
<style type="text/css">
	.st0{fill:#F4F1EF;}
	.st1{fill:#5B62B9;}
	.st2{fill:#FFFFFF;}
	.st3{fill:#FF0000;}
</style>
<g>
	<g>
		<path class="st0" d="M288.8,390.1c-8.9-1-17.8-0.1-26.8-0.2c-10-0.1-15.9-7.8-16-20.5c0-12.3,5.5-19.6,15.1-19.9
			c4.2-0.1,8.5-0.1,14.8-0.1c-10.8-22.8-20.4-43.6-30.5-63.7c-1.5-2.9-5.8-2.9-8.8-3.1c-22.7-1-45.5-1.1-68.2-2.8
			c-6.1-0.5-12.5-4.2-18.1-8.5c-3.6-2.9-8.5-9.8-8.4-14.6c0.1-5.2,4.8-12.6,8.5-14.5c9.7-5.1,19.8-9.9,30-10.9
			c18.9-1.9,38-0.5,57-1.6c3.6-0.2,8.1-4,10.3-8.4c8.8-18,16.9-37,26.5-58.2c-6.5,0-11,0.2-15.4,0.1c-9.1-0.4-14.5-7.7-14.8-19.6
			c-0.2-12,5-19.8,14-20.2c8.6-0.4,17.3-1,25.9,0.1c6.7,0.8,10.4-3.5,13.9-11.7c8.1-18.5,16.3-36.8,24.6-54.9V15.8
			c0-7.8-6.7-14.1-14.9-14.1H14.9C6.7,1.7,0.1,8,0.1,15.8v479.1c0,7.8,6.7,14.1,14.9,14.1h292.6c8.2,0,14.9-6.3,14.9-14.1v-47.4
			c-7.9-16.7-15.8-33.3-23.9-49.7C296.5,393.7,292.2,390.5,288.8,390.1z"/>
		<path class="st1" d="M322.5,228.2v-4.9c-0.5,1.6-0.9,3.3-1.4,4.9C321.6,228.2,322,228.2,322.5,228.2z"/>
		<path class="st1" d="M322.5,286.6v-2.3c-0.2,0-0.4,0.1-0.6,0.1C322,285.2,322.2,285.9,322.5,286.6z"/>
		<path class="st0" d="M688.6,308.2c0-40-7.8-79.2-19.7-115.7c-11.8-36.4-27.7-70-43.6-98.6c-23.5-42.2-47.1-73.5-57.9-87.1
			c-57.4-3.7-118.3-5.6-181.4-5.6h0c-0.9,0-1.7,0-2.6,0v229.5c16.5,1,33,2,49.6,2.7c2.6,0.1,5.9-2.9,7.7-6.1
			c8.8-16.1,18-31.8,25.4-49.4c8.1-19.5,18.4-25.1,33-18.5c-7.9,29.8-15.9,59.9-24.5,92.2c8.2,1,15.1,1.8,22,2.7c0,0.6,0,0.4,0,1
			c-6.8,1.1-13.6,2.2-21.9,3.5c9,31.6,17.5,61.5,26.1,91.6c-13.2,5.6-23.5,3.9-31.9-15.6c-7.9-18.4-18-34.5-27.4-51.1
			c-1.8-3.2-5.1-6.6-7.6-6.5c-16.8,0.9-33.6,1.9-50.4,2.9v228.9c0.9,0,1.7,0,2.6,0h0c79.4,0,155.3-3.1,225-8.8
			c27.5-29.3,46.5-59.8,58.7-90.8C683.1,375.9,688.6,341.8,688.6,308.2z"/>
		<path class="st0" d="M912,60.1v190.6c0,30.1-25.7,54.5-57.5,54.5h-21.6c-31.8,0-57.5-24.4-57.5-54.5V28.9
			C722,20.2,661.6,13.2,596.2,8.4c7.1,9.4,16,21.9,25.8,36.9c23,35.4,50.7,84.9,69.2,141.7c12.3,37.8,20.6,78.9,20.6,121.2
			c0,35.4-5.8,71.6-19.9,107.3c-11.1,28.1-27.4,55.8-50,82.5c218.6-20.2,371.2-65.8,371.2-119V131.1
			C1013.1,104.9,975.9,80.5,912,60.1z"/>
		<polygon class="st2" points="561.6,-0.9 561.3,-0.7 561.3,-0.7 		"/>
	</g>
	<path class="st3" d="M319.8,318.2c0.4-9.3,0.8-18.5,1.2-27.8c0.1-3.4-0.3-3.9-4.1-3.5c-8.3,0.9-16.7,1.9-25,2.8c-0.3,0-0.7,0-1.2,0
		c0.6-2.2,1.1-4.2,1.8-6.2c1-2.7,0.3-4.6-2.1-6.5c-8.3-6.5-16.5-13.2-24.8-19.8c-0.6-0.5-1.2-1.1-2.1-1.9c1.9-0.9,3.5-1.8,5.3-2.5
		c1.8-0.8,2.4-1.9,1.9-3.8c-1.7-5.7-3.2-11.5-4.9-17.7c5.1,1.1,9.7,2,14.4,3c3.6,0.7,4.4,0.3,5.4-3.1c0.5-1.7,1-3.3,1.7-5.4
		c4.1,4.5,7.9,8.7,11.7,12.9c1.2,1.4,2.4,3.5,4.7,2.5c2.1-0.9,1.4-3,1-4.7c-1.6-8.5-3.2-17-4.8-25.5c-0.2-0.9-0.3-1.7-0.4-3
		c2.3,1.2,4.2,2.2,6.2,3.1c4.3,2.1,5.3,1.9,7.4-2.1c3-5.6,6-11.1,9.2-17.1c3.2,5.9,6.2,11.4,9.2,16.9c2.2,4.2,3.2,4.4,7.6,2.2
		c1.9-0.9,3.7-1.9,6.1-3.1c-1,5.3-1.9,10.1-2.8,14.9c-0.9,4.9-1.9,9.7-2.7,14.6c-0.2,1.2,0.6,2.6,1,3.8c1.3-0.5,3.1-0.7,4-1.7
		c4.2-4.4,8.1-8.9,12.5-13.8c0.7,2.2,1.2,4,1.7,5.8c0.8,2.8,1.8,3.4,4.9,2.8c4.8-1,9.6-2,14.8-3.1c-1.5,5.4-2.9,10.5-4.3,15.6
		c-0.2,0.8-0.4,1.5-0.6,2.3c-0.6,1.8,0.1,2.9,1.8,3.6c1.8,0.8,3.5,1.6,5.5,2.6c-6.3,5.1-12.3,9.9-18.3,14.8c-3.1,2.5-6.1,5-9.2,7.3
		c-1.9,1.5-2.4,3.3-1.7,5.4c0.7,2.2,1.3,4.4,2.2,7c-5.1-0.6-10-1.1-14.8-1.6c-4-0.4-7.9-1-11.9-1.3c-3.1-0.3-3.7,0.3-3.6,3.2
		c0.2,9.4,0.4,18.7,0.6,28C322.8,318.2,321.3,318.2,319.8,318.2z"/>
</g>
</svg>
